<svg width="214" height="91" viewBox="0 0 214 91" fill="none" xmlns="http://www.w3.org/2000/svg">
<path d="M20.8125 55.0703C20.8125 54.4609 20.7188 53.9141 20.5312 53.4297C20.3594 52.9297 20.0312 52.4766 19.5469 52.0703C19.0625 51.6484 18.3828 51.2344 17.5078 50.8281C16.6328 50.4219 15.5 50 14.1094 49.5625C12.5625 49.0625 11.0938 48.5 9.70312 47.875C8.32812 47.25 7.10938 46.5234 6.04688 45.6953C5 44.8516 4.17188 43.875 3.5625 42.7656C2.96875 41.6562 2.67188 40.3672 2.67188 38.8984C2.67188 37.4766 2.98438 36.1875 3.60938 35.0312C4.23438 33.8594 5.10938 32.8594 6.23438 32.0312C7.35938 31.1875 8.6875 30.5391 10.2188 30.0859C11.7656 29.6328 13.4609 29.4062 15.3047 29.4062C17.8203 29.4062 20.0156 29.8594 21.8906 30.7656C23.7656 31.6719 25.2188 32.9141 26.25 34.4922C27.2969 36.0703 27.8203 37.875 27.8203 39.9062H20.8359C20.8359 38.9062 20.625 38.0312 20.2031 37.2812C19.7969 36.5156 19.1719 35.9141 18.3281 35.4766C17.5 35.0391 16.4531 34.8203 15.1875 34.8203C13.9688 34.8203 12.9531 35.0078 12.1406 35.3828C11.3281 35.7422 10.7188 36.2344 10.3125 36.8594C9.90625 37.4688 9.70312 38.1562 9.70312 38.9219C9.70312 39.5 9.84375 40.0234 10.125 40.4922C10.4219 40.9609 10.8594 41.3984 11.4375 41.8047C12.0156 42.2109 12.7266 42.5938 13.5703 42.9531C14.4141 43.3125 15.3906 43.6641 16.5 44.0078C18.3594 44.5703 19.9922 45.2031 21.3984 45.9062C22.8203 46.6094 24.0078 47.3984 24.9609 48.2734C25.9141 49.1484 26.6328 50.1406 27.1172 51.25C27.6016 52.3594 27.8438 53.6172 27.8438 55.0234C27.8438 56.5078 27.5547 57.8359 26.9766 59.0078C26.3984 60.1797 25.5625 61.1719 24.4688 61.9844C23.375 62.7969 22.0703 63.4141 20.5547 63.8359C19.0391 64.2578 17.3438 64.4688 15.4688 64.4688C13.7812 64.4688 12.1172 64.25 10.4766 63.8125C8.83594 63.3594 7.34375 62.6797 6 61.7734C4.67188 60.8672 3.60938 59.7109 2.8125 58.3047C2.01562 56.8984 1.61719 55.2344 1.61719 53.3125H8.67188C8.67188 54.375 8.83594 55.2734 9.16406 56.0078C9.49219 56.7422 9.95312 57.3359 10.5469 57.7891C11.1562 58.2422 11.875 58.5703 12.7031 58.7734C13.5469 58.9766 14.4688 59.0781 15.4688 59.0781C16.6875 59.0781 17.6875 58.9062 18.4688 58.5625C19.2656 58.2188 19.8516 57.7422 20.2266 57.1328C20.6172 56.5234 20.8125 55.8359 20.8125 55.0703ZM51.4688 29.875H58.4766V52.4219C58.4766 55.0469 57.9141 57.2578 56.7891 59.0547C55.6797 60.8516 54.1406 62.2031 52.1719 63.1094C50.2188 64.0156 47.9688 64.4688 45.4219 64.4688C42.875 64.4688 40.6094 64.0156 38.625 63.1094C36.6562 62.2031 35.1094 60.8516 33.9844 59.0547C32.875 57.2578 32.3203 55.0469 32.3203 52.4219V29.875H39.3516V52.4219C39.3516 53.9531 39.5938 55.2031 40.0781 56.1719C40.5625 57.1406 41.2578 57.8516 42.1641 58.3047C43.0859 58.7578 44.1719 58.9844 45.4219 58.9844C46.7031 58.9844 47.7891 58.7578 48.6797 58.3047C49.5859 57.8516 50.2734 57.1406 50.7422 56.1719C51.2266 55.2031 51.4688 53.9531 51.4688 52.4219V29.875ZM134.016 58.5156V64H116.836V58.5156H134.016ZM119.109 29.875V64H112.078V29.875H119.109ZM145.523 29.875V64H138.516V29.875H145.523ZM179.883 29.875V64H172.852L159.141 41.125V64H152.109V29.875H159.141L172.875 52.7734V29.875H179.883ZM193.031 29.875V64H186V29.875H193.031ZM213.469 29.875L199.945 46.7266L192.141 55.1172L190.875 48.4609L196.148 41.2422L204.844 29.875H213.469ZM205.477 64L195.422 48.2266L200.625 43.8672L213.797 64H205.477Z" fill="#022443"/>
<path d="M79 68.672C82.4987 68.4587 86.2533 68.8213 90.264 69.76C94.3173 70.7413 97.496 71.232 99.8 71.232C102.104 71.232 103.811 70.7413 104.92 69.76C106.072 68.7787 106.648 67.5413 106.648 66.048H107.928C107.928 70.9547 107.267 74.624 105.944 77.056C104.621 79.5307 102.211 80.768 98.712 80.768C95.768 80.768 92.8667 79.488 90.008 76.928C88.8133 75.8613 87.6187 74.7947 86.424 73.728C83.5653 71.168 80.728 69.888 77.912 69.888C76.12 69.888 74.264 70.6347 72.344 72.128L71.64 70.976C73.0053 69.7813 74.3493 68.9067 75.672 68.352C76.9947 67.84 77.9333 67.4987 78.488 67.328C79.256 67.0293 80.6853 66.624 82.776 66.112C90.072 63.936 93.72 57.344 93.72 46.336C93.72 40.6187 92.8027 36.2667 90.968 33.28C89.176 30.2933 86.9147 28.8 84.184 28.8C81.496 28.8 79.3413 30.3147 77.72 33.344C76.0987 36.3307 75.288 40.448 75.288 45.696C75.288 50.944 75.9707 55.0187 77.336 57.92C78.744 60.7787 80.8133 62.208 83.544 62.208V63.488C77.784 63.488 73.24 62.0587 69.912 59.2C66.584 56.3413 64.92 52.1387 64.92 46.592C64.92 41.0453 66.6907 36.48 70.232 32.896C73.7733 29.312 78.4453 27.52 84.248 27.52C90.0507 27.52 94.808 29.312 98.52 32.896C102.232 36.48 104.088 40.9813 104.088 46.4C104.088 49.5573 103.427 52.416 102.104 54.976C100.824 57.536 99.0107 59.6907 96.664 61.44C92.0133 64.896 86.1253 67.2213 79 68.416V68.672Z" fill="#FB7979"/>
<path d="M87.5984 51.109C87.5984 51.6033 87.1861 52 86.6722 52C86.1583 52 85.7418 51.6033 85.7418 51.109C85.7418 50.6146 86.1603 50.2141 86.6722 50.2141C87.1881 50.2141 87.5984 50.6146 87.5984 51.109ZM82.441 50.2141C81.9271 50.2141 81.5147 50.6166 81.5147 51.109C81.5147 51.6014 81.9271 52 82.441 52C82.9549 52 83.3713 51.6033 83.3713 51.109C83.3713 50.6146 82.9549 50.2141 82.441 50.2141ZM88.3663 44.9383C82.2277 44.9383 80.6636 44.6882 79 43C79.6988 44.0102 80.0827 45.9095 86.5787 45.8176C93.349 45.7199 89.2194 47.5 88.0169 49.5087C91.8093 46.2514 94.5048 44.9383 88.3663 44.9383Z" fill="#022443"/>
</svg>
